<?xml version="1.0" encoding="utf-8"?>
<!-- Generator: Adobe Illustrator 14.0.0, SVG Export Plug-In . SVG Version: 6.00 Build 43363)  -->
<!DOCTYPE svg PUBLIC "-//W3C//DTD SVG 1.1//EN" "http://www.w3.org/Graphics/SVG/1.1/DTD/svg11.dtd">
<svg version="1.1" id="Layer_1" xmlns:svg="http://www.w3.org/2000/svg"
	 xmlns="http://www.w3.org/2000/svg" xmlns:xlink="http://www.w3.org/1999/xlink" x="0px" y="0px" width="37.4px" height="35.767px"
	 viewBox="0 0 37.4 35.767" enable-background="new 0 0 37.4 35.767" xml:space="preserve">
<g>
	<g id="breadboard">
		<g id="icon">
			<path fill="#1F7A34" d="M0,0v16.095c1.193,0,2.16,0.802,2.159,1.79c0,0.987-0.967,1.787-2.159,1.788v16.095h37.4V0H0z"/>
			<g transform="translate(100,150.549)">
				<g>
					<rect x="-85.483" y="-140.584" fill="#666666" width="0.991" height="0.65"/>
					<rect x="-85.483" y="-140.584" fill="#999999" width="0.089" height="0.511"/>
				</g>
				<g>
					<rect x="-83.638" y="-140.584" fill="#666666" width="0.991" height="0.65"/>
					<rect x="-83.638" y="-140.584" fill="#999999" width="0.089" height="0.511"/>
				</g>
				<g>
					<rect x="-81.798" y="-140.584" fill="#666666" width="0.991" height="0.65"/>
					<rect x="-81.798" y="-140.584" fill="#999999" width="0.089" height="0.511"/>
				</g>
				<g>
					<rect x="-79.954" y="-140.584" fill="#666666" width="0.99" height="0.65"/>
					<rect x="-79.954" y="-140.584" fill="#999999" width="0.088" height="0.511"/>
				</g>
				<g>
					<rect x="-78.113" y="-140.584" fill="#666666" width="0.99" height="0.65"/>
					<rect x="-78.113" y="-140.584" fill="#999999" width="0.088" height="0.511"/>
				</g>
				<g>
					<polygon fill="#B3B3B3" points="-71.865,-121.478 -74.083,-119.218 -88.708,-119.218 -90.708,-121.248 -90.708,-140.217 
						-71.863,-140.217 					"/>
					<polygon fill="#999999" points="-88.706,-119.39 -79.458,-119.392 -82.648,-122.797 -90.492,-122.797 -90.492,-121.312 					
						"/>
					<rect x="-71.663" y="-133.604" fill="#666666" width="1.83" height="3.041"/>
					<rect x="-92.767" y="-133.604" fill="#666666" width="1.829" height="3.041"/>
					<rect x="-90.708" y="-140.217" fill="#CCCCCC" width="18.845" height="0.13"/>
					<rect x="-86.447" y="-140.217" fill="#333333" width="10.291" height="18.364"/>
					<rect x="-91.942" y="-122.394" fill="#B3B3B3" width="1.003" height="1.082"/>
					<rect x="-91.578" y="-122.394" fill="#CCCCCC" width="0.641" height="1.082"/>
					<rect x="-71.665" y="-122.394" fill="#B3B3B3" width="1.002" height="1.082"/>
					<rect x="-71.665" y="-122.394" fill="#CCCCCC" width="0.641" height="1.082"/>
					<g>
						<g>
							<rect x="-77.368" y="-121.478" fill="#F2F2F2" width="0.477" height="0.648"/>
						</g>
						<g>
							<rect x="-79.454" y="-121.478" fill="#F2F2F2" width="0.479" height="0.648"/>
						</g>
						<g>
							<rect x="-81.538" y="-121.478" fill="#F2F2F2" width="0.476" height="0.648"/>
						</g>
						<g>
							<rect x="-83.625" y="-121.478" fill="#F2F2F2" width="0.476" height="0.648"/>
						</g>
						<g>
							<rect x="-85.71" y="-121.478" fill="#F2F2F2" width="0.476" height="0.648"/>
						</g>
						<g>
							<rect x="-85.71" y="-121.478" fill="#808080" width="0.096" height="0.648"/>
						</g>
						<g>
							<rect x="-83.625" y="-121.478" fill="#808080" width="0.096" height="0.648"/>
						</g>
						<g>
							<rect x="-81.538" y="-121.478" fill="#808080" width="0.097" height="0.648"/>
						</g>
						<g>
							<rect x="-79.454" y="-121.478" fill="#808080" width="0.098" height="0.648"/>
						</g>
						<g>
							<rect x="-77.366" y="-121.478" fill="#808080" width="0.098" height="0.648"/>
						</g>
					</g>
					<path fill="#4D4D4D" d="M-86.222-120.644h0.514v-0.396h0.476v0.396h1.609v-0.396h0.476v0.396h1.609v-0.396h0.476v0.396h1.608
						v-0.396h0.479v0.396h1.607v-0.396h0.477v0.396h0.324h0.27c0.078,0,0.143-0.064,0.143-0.146v-1.064
						c0-0.08-0.062-0.146-0.143-0.146h-10.003c-0.079,0-0.146,0.064-0.146,0.146v1.064c0,0.078,0.065,0.146,0.146,0.146H-86.222z"/>
					<path fill="#CCCCCC" d="M-90.939-139.651l0.23-0.567h2.534c0,0-2.302,0.113-2.384,0.283c-0.082,0.17,0.111,0.284,0.111,0.284
						H-90.939z"/>
					<path fill="#CCCCCC" d="M-71.663-139.651l-0.23-0.566h-2.533c0,0,2.301,0.113,2.383,0.283c0.082,0.17-0.109,0.283-0.109,0.283
						H-71.663z"/>
					<path fill="#CCCCCC" d="M-90.939-123.894v2.656l2.019,2.176h15.03l2.229-2.176v-2.656H-90.939z M-72.111-121.33l-1.979,1.938
						l-14.617,0.002l-1.786-1.922v-1.484h18.384v1.467H-72.111z"/>
					<path fill="#E6E6E6" d="M-75.052-139.651v1.067h-1.605v-1.634h-0.461v0.566h-8.364v-0.566h-0.525v1.635h-1.606v-1.068h-3.325
						v16.44h19.273v-16.44H-75.052z M-86.008-126.359v0.814H-87.6v-0.881c-0.426-0.277-0.708-0.76-0.708-1.307
						c0-0.598,0.219-1.106,0.708-1.37l0,0v-4.48h1.592v4.482c0.488,0.264,0.825,0.774,0.825,1.372
						C-85.183-127.132-85.519-126.623-86.008-126.359z M-75.12-126.359v0.814h-1.592v-0.881c-0.426-0.277-0.707-0.76-0.707-1.307
						c0-0.598,0.217-1.106,0.707-1.37l0,0v-4.48h1.592v4.482c0.49,0.264,0.826,0.774,0.826,1.372
						C-74.294-127.132-74.628-126.623-75.12-126.359z"/>
					<polygon fill="#F2F2F2" points="-90.532,-123.207 -90.939,-123.207 -90.939,-139.651 -89.407,-139.651 					"/>
					<polygon fill="#999999" points="-71.663,-123.207 -72.234,-134.188 -72.8,-139.651 -71.663,-139.651 					"/>
					<rect x="-87.6" y="-133.583" fill="#CCCCCC" width="1.592" height="0.13"/>
					<rect x="-76.71" y="-133.583" fill="#CCCCCC" width="1.592" height="0.13"/>
					<rect x="-89.993" y="-124.07" fill="#B3B3B3" width="17.385" height="0.66"/>
					<rect x="-89.993" y="-123.519" fill="#CCCCCC" width="17.385" height="0.312"/>
				</g>
			</g>
		</g>
		<g transform="translate(103.681,734.05)">
			<rect id="connector0pin" x="-100.266" y="-730.547" fill="#8D8C8C" width="2.3" height="2.297"/>
			<rect x="-99.704" y="-729.99" fill="#8C8663" width="1.184" height="1.182"/>
			<polygon fill="#B8AF82" points="-100.266,-728.25 -99.704,-728.809 -99.704,-730.045 -100.266,-730.547 			"/>
			<polygon fill="#80795B" points="-98.523,-729.988 -99.696,-729.988 -100.266,-730.547 -97.966,-730.547 			"/>
			<polygon fill="#5E5B43" points="-98.523,-728.809 -98.523,-729.988 -97.966,-730.547 -97.966,-728.25 			"/>
			<polygon fill="#9A916C" points="-100.266,-728.25 -99.698,-728.809 -98.523,-728.809 -97.966,-728.25 			"/>
		</g>
		<g transform="translate(203.681,734.05)">
			<rect id="connector2pin" x="-193.066" y="-730.547" fill="#8D8C8C" width="2.299" height="2.297"/>
			<rect x="-192.504" y="-729.99" fill="#8C8663" width="1.184" height="1.182"/>
			<polygon fill="#B8AF82" points="-193.066,-728.25 -192.504,-728.809 -192.504,-730.045 -193.066,-730.547 			"/>
			<polygon fill="#80795B" points="-191.322,-729.988 -192.496,-729.988 -193.066,-730.547 -190.767,-730.547 			"/>
			<polygon fill="#5E5B43" points="-191.322,-728.809 -191.322,-729.988 -190.767,-730.547 -190.767,-728.25 			"/>
			<polygon fill="#9A916C" points="-193.066,-728.25 -192.498,-728.809 -191.322,-728.809 -190.767,-728.25 			"/>
		</g>
		<g transform="translate(303.681,734.05)">
			<rect id="connector4pin" x="-285.865" y="-730.547" fill="#8D8C8C" width="2.298" height="2.297"/>
			<rect x="-285.305" y="-729.99" fill="#8C8663" width="1.183" height="1.182"/>
			<polygon fill="#B8AF82" points="-285.865,-728.25 -285.305,-728.809 -285.305,-730.045 -285.865,-730.547 			"/>
			<polygon fill="#80795B" points="-284.124,-729.988 -285.296,-729.988 -285.865,-730.547 -283.567,-730.547 			"/>
			<polygon fill="#5E5B43" points="-284.124,-728.809 -284.124,-729.988 -283.567,-730.547 -283.567,-728.25 			"/>
			<polygon fill="#9A916C" points="-285.865,-728.25 -285.298,-728.809 -284.124,-728.809 -283.567,-728.25 			"/>
		</g>
		<g transform="translate(403.681,734.05)">
			<rect id="connector5pin" x="-378.666" y="-730.547" fill="#8D8C8C" width="2.299" height="2.297"/>
			<rect x="-378.105" y="-729.99" fill="#8C8663" width="1.185" height="1.182"/>
			<polygon fill="#B8AF82" points="-378.666,-728.25 -378.105,-728.809 -378.105,-730.045 -378.666,-730.547 			"/>
			<polygon fill="#80795B" points="-376.922,-729.988 -378.097,-729.988 -378.666,-730.547 -376.367,-730.547 			"/>
			<polygon fill="#5E5B43" points="-376.922,-728.809 -376.922,-729.988 -376.367,-730.547 -376.367,-728.25 			"/>
			<polygon fill="#9A916C" points="-378.666,-728.25 -378.099,-728.809 -376.922,-728.809 -376.367,-728.25 			"/>
		</g>
		<g transform="translate(503.681,734.05)">
			<rect id="connector6pin" x="-471.465" y="-730.547" fill="#8D8C8C" width="2.299" height="2.297"/>
			<rect x="-470.905" y="-729.99" fill="#8C8663" width="1.184" height="1.182"/>
			<polygon fill="#B8AF82" points="-471.465,-728.25 -470.905,-728.809 -470.905,-730.045 -471.465,-730.547 			"/>
			<polygon fill="#80795B" points="-469.723,-729.988 -470.897,-729.988 -471.465,-730.547 -469.167,-730.547 			"/>
			<polygon fill="#5E5B43" points="-469.723,-728.809 -469.723,-729.988 -469.167,-730.547 -469.167,-728.25 			"/>
			<polygon fill="#9A916C" points="-471.465,-728.25 -470.899,-728.809 -469.723,-728.809 -469.167,-728.25 			"/>
		</g>
	</g>
</g>
</svg>
